<?xml version="1.0" standalone="no"?>
<!DOCTYPE svg PUBLIC "-//W3C//DTD SVG 20010904//EN"
 "http://www.w3.org/TR/2001/REC-SVG-20010904/DTD/svg10.dtd">
<svg version="1.0" xmlns="http://www.w3.org/2000/svg"
 width="40.000000pt" height="39.000000pt" viewBox="0 0 40.000000 39.000000"
 preserveAspectRatio="xMidYMid meet">

<g transform="translate(0.000000,39.000000) scale(0.100000,-0.100000)"
fill="#000000" stroke="none">
<path d="M173 377 c5 -12 -2 -14 -35 -9 -32 4 -40 2 -36 -9 3 -9 -10 -22 -36
-36 -28 -15 -35 -22 -22 -23 17 0 15 -5 -14 -35 -26 -27 -30 -35 -16 -35 9 0
14 -5 11 -10 -4 -6 -10 -24 -15 -40 -7 -23 -5 -28 6 -23 10 4 14 -4 14 -30 0
-36 15 -58 22 -35 3 7 13 -4 23 -25 12 -25 21 -34 25 -26 6 9 15 6 35 -10 33
-25 50 -27 41 -5 -5 13 -2 15 11 9 10 -4 28 -10 41 -12 17 -4 21 -2 16 11 -5
13 1 16 35 16 23 0 41 5 41 10 0 6 -6 10 -12 10 -7 0 1 9 18 19 35 21 51 41
34 41 -6 0 -2 17 10 40 16 32 17 38 5 34 -13 -5 -15 0 -9 37 6 39 6 43 -8 31
-14 -11 -17 -8 -22 22 -7 34 -26 60 -26 35 0 -7 -16 3 -37 22 -20 18 -33 28
-29 22 9 -16 6 -16 -39 3 -32 13 -37 13 -32 1z m76 -133 c28 -35 26 -69 -4
-99 -30 -30 -64 -32 -99 -4 -35 27 -37 90 -4 113 35 25 83 20 107 -10z"/>
</g>
</svg>
