<svg width="24" height="24" viewBox="0 0 24 24" fill="none" xmlns="http://www.w3.org/2000/svg">
<path d="M20.3429 5.4433H12.7423V4.32594C13.6062 4.01953 14.2268 3.19447 14.2268 2.2268C14.2268 0.998944 13.2279 0 12 0C10.7721 0 9.7732 0.998944 9.7732 2.2268C9.7732 3.19447 10.3938 4.01953 11.2577 4.32594V5.4433H3.65706L0 13.4626V13.6239C0 15.9035 1.85463 17.7582 4.13433 17.7582C6.41404 17.7582 8.26867 15.9036 8.26867 13.6239V13.4626L5.28866 6.92784H11.2577V19.5464H7.68292L6.19838 24H17.8016L16.317 19.5464H12.7423V6.92784H18.7113L15.7313 13.4626V13.6239C15.7313 15.9035 17.5859 17.7582 19.8656 17.7582C22.1453 17.7582 24 15.9035 24 13.6238V13.4626L20.3429 5.4433ZM12 1.48454C12.4093 1.48454 12.7423 1.81752 12.7423 2.2268C12.7423 2.63609 12.4093 2.96907 12 2.96907C11.5907 2.96907 11.2577 2.63609 11.2577 2.2268C11.2577 1.81752 11.5907 1.48454 12 1.48454ZM6.37212 12.8816H1.89659L4.13438 7.97448L6.37212 12.8816ZM15.7419 22.5155H8.25808L8.75292 21.0309H15.247L15.7419 22.5155ZM19.8657 7.97448L22.1035 12.8816H17.6279L19.8657 7.97448Z" fill="#2D2D2D"/>
</svg>
