<svg width="29" height="22" viewBox="0 0 29 22" fill="none" xmlns="http://www.w3.org/2000/svg">
<path fill-rule="evenodd" clip-rule="evenodd" d="M21 21C21 21.5523 20.5523 22 20 22H1.00013C0.447847 22 0.000131607 21.5523 0.000131607 21V19.4C0.000131607 18.8477 0.447847 18.4 1.00013 18.4H20C20.5523 18.4 21 18.8477 21 19.4V21ZM15.7501 13.8001C15.7501 14.3524 15.3024 14.8001 14.7501 14.8001H1.00025C0.447964 14.8001 0.000247955 14.3524 0.000247955 13.8001V12.2001C0.000247955 11.6478 0.447962 11.2001 1.00025 11.2001H14.7501C15.3024 11.2001 15.7501 11.6478 15.7501 12.2001V13.8001ZM-2.86102e-05 6.59998C-2.86102e-05 7.15226 0.447685 7.59998 0.999971 7.59998H9.49991C10.0522 7.59998 10.4999 7.15226 10.4999 6.59997V4.99998C10.4999 4.44769 10.0522 3.99998 9.49991 3.99998H0.999971C0.447687 3.99998 -2.86102e-05 4.44769 -2.86102e-05 4.99998V6.59998Z" fill="url(#paint0_linear_475:12963)"/>
<path d="M27.8442 20.1199L24.3864 12.3904C25.5459 11.7235 26.4971 10.6634 27.021 9.3003C28.2352 6.14101 26.7057 2.54517 23.6116 1.28519C20.5175 0.0252027 17.012 1.5706 15.7978 4.72989C14.5835 7.88918 16.1131 11.485 19.2071 12.745C20.5421 13.2886 21.9523 13.3077 23.2234 12.9031L26.6812 20.6326C26.7512 20.7971 26.8796 20.9178 27.0309 20.9794C27.1821 21.041 27.3561 21.0435 27.5164 20.9728C27.838 20.831 27.9845 20.4498 27.8442 20.1199ZM19.6708 11.5387C17.2276 10.5438 16.0204 7.70562 16.9792 5.21099C17.938 2.71636 20.7049 1.49657 23.148 2.49148C25.5911 3.48638 26.7984 6.32456 25.8396 8.81919C24.8808 11.3138 22.1139 12.5336 19.6708 11.5387Z" fill="#E41305" stroke="#E41305"/>
<defs>
<linearGradient id="paint0_linear_475:12963" x1="21" y1="20.5" x2="-0.757798" y2="19.4315" gradientUnits="userSpaceOnUse">
<stop stop-color="#E31104"/>
<stop offset="1" stop-color="#FB4F2A"/>
</linearGradient>
</defs>
</svg>
