<svg width="16" height="16" viewBox="0 0 16 16" fill="none" xmlns="http://www.w3.org/2000/svg">
<path d="M16 7.52941H14.0997C13.8705 4.53048 11.4695 2.12947 8.47059 1.90027V0H7.52941V1.90027C4.53048 2.12947 2.12947 4.53048 1.90027 7.52941H0V8.47059H1.90027C2.12947 11.4695 4.53048 13.8705 7.52941 14.0997V16H8.47059V14.0997C11.4695 13.8705 13.8705 11.4695 14.0997 8.47059H16V7.52941ZM13.1548 7.52941H10.7841C10.5852 6.34883 9.65117 5.41484 8.47059 5.21591V2.84515C10.9501 3.06968 12.9303 5.04988 13.1548 7.52941ZM8 9.88235C6.96207 9.88235 6.11765 9.03793 6.11765 8C6.11765 6.96207 6.96207 6.11765 8 6.11765C9.03793 6.11765 9.88235 6.96207 9.88235 8C9.88235 9.03793 9.03793 9.88235 8 9.88235ZM7.52941 2.84515V5.21587C6.34883 5.41481 5.41484 6.3488 5.21591 7.52938H2.84515C3.06968 5.04988 5.04988 3.06968 7.52941 2.84515ZM2.84515 8.47059H5.21587C5.41481 9.65117 6.3488 10.5852 7.52938 10.7841V13.1548C5.04988 12.9303 3.06968 10.9501 2.84515 8.47059ZM8.47059 13.1548V10.7841C9.65117 10.5852 10.5852 9.65117 10.7841 8.47059H13.1548C12.9303 10.9501 10.9501 12.9303 8.47059 13.1548Z" fill="#FD542D"/>
<path d="M6 6H10V10H6V6Z" fill="#FD542D"/>
</svg>
