<svg width="176" height="39" viewBox="0 0 176 39" fill="none" xmlns="http://www.w3.org/2000/svg">
<path fill-rule="evenodd" clip-rule="evenodd" d="M53.6526 6.43403C52.3836 6.69402 50.7915 7.52793 50.1771
8.25418C49.8842 8.60038 49.4152 9.37091 49.1347 9.96628L48.625 11.0488L48.5738 20.4959C48.5177 30.8752 48.4951
30.6618 49.7102 31.2712C51.0924 31.9646 55.1195 31.6264 56.1638 30.7294C56.6885 30.2786 56.6954 30.2401 56.7928
 27.2093C56.8883 24.2394 56.9068 24.1293 57.3988 23.6379C57.8072 23.2299 58.1007 23.1293 58.9021 23.1232C60.204
  23.1132 60.4863 23.2852 61.9399 24.9772C66.0894 29.8061 66.8924 30.6333 67.919 31.1356C68.9245 31.6274 69.0572
  31.6416 72.1055 31.5806C74.8089 31.5265 75.3088 31.4674 75.6458 31.162C75.8615 30.9663 75.9977 30.652 75.9483
  30.4633C75.7948 29.8764 74.2901 27.9993 71.9907 25.5263C70.1174 23.5115 69.7829 23.0547 69.7834 22.5125C69.7844
  21.577 70.3721 20.7638 71.6697 19.9025C73.3716 18.773 74.2781 17.8834 74.8631 16.7688C75.3216 15.8952 75.3864
  15.5421 75.3889 13.9026C75.3915 12.2958 75.3201 11.8807 74.8814 10.9504C73.9372 8.94894 72.2078 7.6413 69.3884
   6.79755C68.0032 6.38305 67.5035 6.35294 61.2212 6.30511C57.5407 6.27717 54.1348 6.33523 53.6526
   6.43403ZM65.6235 10.9092C65.988 11.0769 66.4527 11.4869 66.656 11.8203C68.4709 14.7963 63.2608 19.356 58.4833
    18.9724C57.0093 18.8541 56.116 18.4231 55.6041 17.5832C54.8398 16.3301 55.3407 14.7757 57.0506 13.0925C59.339
    10.8397 63.2866 9.83441 65.6235 10.9092ZM133.551 12.1238C130.507 12.7758 128.223 13.8361 126.473
    15.4098C124.087 17.5543 123.285 21.7343 124.533 25.5147C126.354 31.0324 137.218 33.7023 145.163
    30.5847C149.802 28.7645 151.662 25.967 151.411 21.1856C151.244 17.9877 150.082 15.9373 147.497
     14.2787C144.039 12.0594 138.12 11.1448 133.551 12.1238ZM83.9575 12.3375C83.0892 12.7077 82.7725
      13.1342 82.7725 13.9331C82.7725 14.8463 83.2659 15.4124 84.1884 15.5576C84.5462 15.6139 85.9125
      15.6897 87.2245 15.7259C89.0627 15.7769 89.728 15.8694 90.1243 16.1292C91.0462 16.7332 91.0456 17.9611
      90.123 18.5656C89.7551 18.8067 88.8757 18.9279 86.6444 19.045C82.0874 19.2845 79.2304 20.2001 77.4329
      21.9976C75.1297 24.3008 75.24 27.7202 77.6797 29.6486C79.9314 31.4284 81.4426 31.6453 91.1051
      31.5739L98.749 31.5176L99.1993 30.9939L99.6496 30.4699L99.5579 23.9085C99.5073 20.2995 99.3831 17.0184
      99.2818 16.6171C98.9972 15.4903 97.9491 14.2714 96.7379 13.6583C94.647 12.6001 92.9162 12.2964 88.4801
      12.2088C85.9034 12.158 84.2691 12.2047 83.9575 12.3375ZM106.391 12.3483C105.148 12.854 104.676 13.924
       105.3 14.8158C105.768 15.4838 106.532 15.6482 109.487 15.7161C111.793 15.769 112.348 15.8391 112.62
       16.1119C113.025 16.5165 113.111 16.4177 106.8 22.8154C104.366 25.2819 102.128 27.6732 101.825
       28.1294C100.795 29.6807 100.918 31.1885 102.108 31.6032C102.94 31.8931 119.024 31.8864 120.694
       31.5955C122.4 31.2985 123.218 30.7284 123.218 29.8368C123.218 29.2158 123.131 29.1127 122.234
       28.6679C121.323 28.216 121.003 28.1755 117.904 28.1188C114.176 28.0505 113.833 28.0086 113.392
       27.5677C113.135 27.3111 113.125 27.1816 113.329 26.7954C113.464 26.5401 115.833 23.9229 118.593
       20.9793C121.353 18.0357 123.811 15.3531 124.054 15.018C124.733 14.0803 124.836 13.17 124.321
       12.6542C123.9 12.2338 123.813 12.2293 115.389 12.1887C109.977 12.1627 106.703 12.2208 106.391
       12.3483ZM161.499 12.3338C159.362 12.6286 156.338 13.3244 155.344 13.7497C154.827 13.9709 154.185
       14.4125 153.917 14.7312L153.429 15.3104V22.5684C153.429 27.3675 153.502 29.985 153.643 30.295C154.07
       31.2314 154.895 31.508 157.464 31.5755C160.163 31.6461 161.356 31.3901 161.934 30.6154C162.28 30.1523
       162.308 29.7406 162.293 25.3045C162.271 18.4624 162.54 17.3799 164.51 16.3872C165.989 15.6417 168.139
       15.5084 171.543 15.9509C174.856 16.3815 175.633 16.1908 175.964 14.8652C176.181 13.9945 175.428 13.3566
        173.501 12.7794C171.96 12.318 171.483 12.2747 167.305 12.2182C164.815 12.1846 162.202 12.2366 161.499
         12.3338ZM143.232 16.5755C144.411 16.9627 145.466 18.0956 145.647 19.1715C146.234 22.643 141.154 26.9832
          135.797 27.5874C133.383 27.8598 131.116 26.9967 130.34 25.5098C129.493 23.8853 130.427 21.2613 132.48
           19.4981C135.808 16.6395 139.975 15.5068 143.232 16.5755ZM91.9823 21.925C93.1608 22.4649 93.5058
           23.7574 92.8266 25.0886C91.6199 27.4539 87.5777 29.3424 85.1524 28.6742C84.0229 28.3628 83.1661
           27.5134 83.1661 26.7045C83.1661 23.4206 88.699 20.4209 91.9823 21.925ZM167.585 29.2391C166.778
           30.046 166.79 31.0023 167.615 31.6969C168.791 32.6859 170.355 32.0358 170.355 30.5585C170.355
           29.6051 170.195 29.283 169.554 28.9517C168.728 28.5246 168.226 28.5978 167.585 29.2391ZM169.728
           29.5325C169.87 29.6713 169.995 30.0787 170.005 30.4375C170.039 31.631 168.71 32.2273 167.834
           31.4115C167.224 30.8435 167.269 29.9787 167.936 29.4542C168.499 29.011 169.227 29.0428 169.728
           29.5325ZM168.125 29.5823C167.915 29.7919 167.973 31.4192 168.19 31.4192C168.299 31.4192 168.389
           31.22 168.392 30.9764L168.396 30.5335L168.772 31.0226C168.979 31.2917 169.211 31.4487 169.288
           31.3718C169.364 31.2948 169.322 31.1049 169.193 30.9494C169.033 30.7569 169.024 30.6264 169.165
            30.5394C169.48 30.3448 169.411 29.7051 169.06 29.5705C168.653 29.4142 168.288 29.419 168.125
            29.5823ZM169.076 30.0415C169.143 30.1497 169.015 30.2383 168.793 30.2383C168.57 30.2383 168.387
            30.1497 168.387 30.0415C168.387 29.9332 168.515 29.8447 168.671 29.8447C168.827 29.8447 169.009
            29.9332 169.076 30.0415Z" fill="black"/>
<path d="M17.461 1.19187L17.461 1.19191C17.7122 1.56641 17.9183 1.92666 18.0615 2.19268C18.1332 2.32599
 18.1895 2.43638 18.2282 2.51398C18.2475 2.55281 18.2624 2.58348 18.2727 2.60477L18.2845 2.62953L18.2877
 2.63637L18.2887 2.63835L18.2889 2.63897L18.289 2.63919L18.2891 2.63928L17.9267 2.80858L18.2891 2.63935L18.5989
  3.30287L17.8732 3.20499L17.8732 3.20499L17.8731 3.20498L17.8728 3.20493L17.8715 3.20476L17.8663
  3.20405L17.8459 3.20132L17.77 3.1912C17.7054 3.18262 17.615 3.1707 17.5122 3.15738C17.3059 3.13064 17.0517
  3.09851 16.8541 3.07614C16.7369 3.06287 16.6217 3.04976 16.5084 3.03686C14.4062 2.79763 12.9262 2.6292 11.0773
   2.84703C10.5432 2.90995 10.0422 2.98412 9.66668 3.0524C9.66576 3.05257 9.66483 3.05273 9.66391 3.0529C9.84944
    3.19018 10.081 3.34684 10.3414 3.50754L11.73 4.36428L12.5215 4.85263L11.6226 5.0913L9.93037 5.54063L9.93034
    5.54064C9.51023 5.65216 8.82118 5.93875 7.99989 6.3228C7.1874 6.70275 6.27195 7.16534 5.4106 7.61438C4.73215
    7.96807 4.08897 8.31246 3.55854 8.6H5H6H7.00344L6.27518 9.29031L6 9L6.27515 9.29033L6.27507 9.29041L6.27472
    9.29074L6.2733 9.29209L6.26763 9.29747L6.24536 9.3186L6.1601 9.3996C6.08632 9.46976 5.98019 9.57079 5.85092
     9.69419C5.59234 9.94105 5.24133 10.2773 4.87143 10.6349C4.12497 11.3565 3.32132 12.1464 3.02972
     12.4765C2.49433 13.0825 1.79239 13.9873 1.23788 14.7572C1.0595 15.0049 0.898224 15.236 0.763883
      15.4367C0.956999 15.3916 1.16827 15.3411 1.37989 15.2898C1.73762 15.2031 2.09398 15.1147 2.36106
       15.0479C2.49456 15.0145 2.60566 14.9866 2.68335 14.967L2.77345 14.9442L2.79711 14.9382L2.80314
       14.9367L2.80465 14.9363L2.80503 14.9362L2.80512 14.9362L2.90355 15.3239M17.461 1.19187L17.5011
       0.681119C18.7404 1.02458 20.2581 1.7176 21.4811 2.33511C22.0893 2.64216 22.6184 2.92737 22.9953
        3.13574C23.1837 3.23989 23.3339 3.32474 23.4368 3.3834C23.4882 3.41273 23.5278 3.43551 23.5543
        3.45087L23.5797 3.46555L24.5605 4.15715L25.2542 4.6463L25.1899 3.79991L24.791 3.83025L25.1899
        3.79987L25.1899 3.79981L25.1899 3.79966L25.1898 3.79919L25.1897 3.79757L25.1892 3.79175L25.1875
        3.77025C25.186 3.75175 25.1837 3.72515 25.1808 3.69206C25.1749 3.62596 25.1661 3.5336 25.1545
        3.42806C25.1318 3.22037 25.097 2.94895 25.05 2.72601C25.008 2.52697 24.8552 1.87473 24.7084
        1.25304C24.7181 1.26246 24.7279 1.2719 24.7376 1.28137C25.3677 1.89194 26.1205 2.62155 26.8815
        3.39663C28.1175 4.65552 29.2724 5.93462 29.7671 6.80546L30.2274 7.61595L30.6979 8.44416L30.9598
        7.5284L31.2619 6.47239C31.386 6.03906 31.5398 5.49197 31.6528 5.08336L32.0108 5.84477L32.0108
        5.84481C32.8457 7.62055 33.6172 10.1252 33.8951 11.9573L34.0588 13.0374L34.1934 13.9252L34.7634
        13.2313L36.2456 11.4269L36.2751 12.6355C36.3033 13.7893 36.2599 14.6173 36.2106 15.1525C36.1859
        15.4201 36.1597 15.6145 36.1401 15.7398C36.1304 15.8024 36.1223 15.8478 36.1168 15.8765C36.1141
        15.8908 36.1121 15.9009 36.1108 15.9069L36.1096 15.9127L36.1096 15.9129L36.1096 15.913L36.1095
        15.9133L36.1095 15.9135L36.1086 15.9177L35.3571 19.4932L35.1894 20.2909L35.923 19.9355L38.2824
        18.7922C38.0676 19.2133 37.7418 19.8215 37.2531 20.6944L37.2461 20.7071L37.2399 20.7202C36.3125
         22.7001 35.5128 23.9376 34.3733 25.1754L33.589 26.0274L32.9383 26.7343L33.8984 26.698L35.6113
         26.6333L35.5962 26.2336L35.6113 26.6333C35.9364 26.621 36.2388 26.616 36.4934 26.6174C36.3256
         26.7819 36.1247 26.9712 35.9043 27.1726C35.2691 27.7528 34.4923 28.4148 33.919 28.845C33.3448
         29.2759 32.1379 30.0249 31.2472 30.5003C31.2472 30.5004 31.2472 30.5004 31.2472 30.5004L29.6061
          31.3762L28.8159 31.7979L29.6574 32.1049L31.9787 32.9514C31.473 33.1342 30.7695 33.2969 29.9632
          33.4376C29.0419 33.5984 28.015 33.7258 27.0523 33.8243C26.0904 33.9228 25.1969 33.9918 24.5436
          34.0363C24.2171 34.0585 23.9509 34.0746 23.7665 34.0851C23.6743 34.0903 23.6027 34.0942 23.5541
          34.0967L23.4991 34.0996L23.4852 34.1002L23.4818 34.1004L23.481 34.1005L23.4808 34.1005L22.583
          34.1436L23.216 34.7817L23.2161 34.7818L23.2164 34.7821L23.2178 34.7835L23.2237 34.7895L23.2471
           34.8132C23.2677 34.8342 23.2981 34.8651 23.3367 34.9048C23.414 34.9841 23.5244 35.0983 23.6562
            35.2369C23.9201 35.5143 24.2682 35.8882 24.6077 36.2762L24.6142 36.2836L24.6211 36.2907L25.1873
             36.8765L24.2435 36.8207C23.7739 36.7929 23.1111 36.6439 22.3593 36.4228C21.6146 36.2037 20.8084
             35.9217 20.0619 35.6417C19.3161 35.3621 18.6338 35.086 18.1379 34.8797C17.89 34.7766 17.6889
             34.6911 17.5501 34.6314C17.4806 34.6016 17.4267 34.5782 17.3903 34.5624L17.3491 34.5444L17.3388
              34.5399L17.3363 34.5388L17.3357 34.5385L17.3355 34.5384L16.6276 34.2265L16.7823 34.9845L17.1743
               34.9045L16.7823 34.9845L16.7824 34.9846L16.7824 34.9848L16.7826 34.9857L16.7833 34.9892L16.7861
                35.0028L16.7968 35.055L16.8364 35.2476C16.87 35.4106 16.9167 35.6365 16.9695 35.8888C17.0749
                 36.3923 17.2048 37.0035 17.3014 37.4259L17.3076 37.4533L17.3176 37.4795L17.456 37.8417L17.3543
                 37.7904L17.3543 37.7904C15.5128 36.8623 13.6575 35.5534 12.2593 34.1979L10.8452 32.8269L10.2989
                  32.2972L10.1723 33.0475L10.0609 33.7081L10.0609 33.7081C9.99782 34.0827 9.9269 34.8406 9.89784
                   35.4254L9.32625 34.6643L9.00641 34.9045L9.32624 34.6643C8.71124 33.8454 7.88514 32.2624 7.2013
                    30.8528C6.86246 30.1543 6.56336 29.5086 6.34893 29.0374C6.24175 28.8019 6.15581 28.6102
                     6.09673 28.4775C6.06719 28.4112 6.04437 28.3596 6.02897 28.3247L6.01153 28.2851L6.00716
                      28.2751L6.00608 28.2726L6.00583 28.2721L6.00577 28.2719L5.63929 28.4322M17.461
                       1.19187C17.3101 0.967008 17.1682 0.751388 17.0446 0.560145M17.461 1.19187L17.0446
                       0.560145M2.90355 15.3239L3.28363 15.4485L3.28362 15.4486L3.28358 15.4487L3.2834
                       15.4492L3.2827 15.4514L3.27993 15.4598L3.26921 15.4925L3.2294 15.6141L3.09454
                       16.0264C2.98705 16.3554 2.85388 16.7639 2.75081 17.083C2.49463 17.8761 2.22786
                       18.6196 1.97734 19.3178C1.83796 19.7063 1.7036 20.0808 1.5789 20.4419C1.23239 21.4455
                        0.951685 22.3697 0.80156 23.3004C0.992905 23.1462 1.23591 22.9413 1.54579
                        22.6792C1.83229 22.4367 2.12216 22.2178 2.33924 22.0602C2.44811 21.9812 2.53942 21.917
                         2.60382 21.8724C2.63603 21.8501 2.66155 21.8326 2.67922 21.8206L2.69969 21.8068L2.70524
                          21.803L2.7068 21.802L2.70727 21.8017L2.70742 21.8016L2.70748 21.8015L2.92972
                          22.1341L2.70753 21.8015L3.33932 21.3794L3.32969 22.1392L3.32969 22.1392L3.32969
                          22.1393L3.32968 22.1398L3.32966 22.1418L3.32956 22.1497L3.32921 22.1804L3.32803
                          22.295C3.32711 22.3926 3.32601 22.529 3.3253 22.6842C3.32388 22.9955 3.32406 23.3789
                          3.33023 23.6763C3.38369 26.2527 3.51523 28.3541 4.02312 30.1352C4.02312 30.1352 4.02312
                          30.1352 4.02312 30.1352L4.09328 30.3811L4.39295 29.7793C4.60855 29.3461 4.83698 28.954
                           5.01091 28.6709C5.09806 28.5291 5.172 28.4138 5.22443 28.3337C5.25066 28.2935 5.27154
                            28.2622 5.28604 28.2405L5.30288 28.2156L5.30748 28.2088L5.30878 28.2069L5.30918
                            28.2063L5.30931 28.2061L5.30936 28.206L5.63929 28.4322M2.90355 15.3239L2.80514
                            14.9362L3.51034 14.7572L3.28363 15.4485L2.90355 15.3239ZM5.63929 28.4322L5.3094
                             28.206L5.71697 27.6117L6.00576 28.2719L5.63929 28.4322ZM9.26597 2.72401C9.26863
                             2.72963 9.27148 2.7362 9.2743 2.74367C9.28662 2.77633 9.34457 2.96759 9.18141
                             3.12456L9.26597 2.72401ZM9.26597 2.72401C9.26773 2.72362 9.2695 2.72324 9.27127
                              2.72285L9.26597 2.72401ZM10.9874 4.84611L11.3099 5.04511L11.5199 4.7047L11.4173
                               4.31809L11.051 4.41535L10.1314 3.84796C9.72513 3.59728 9.37868 3.35106 9.15674
                               3.1627L10.9874 4.84611ZM10.9874 4.84611L9.82772 5.15403C8.38511 5.53696 4.37325
                                7.69457 2.7231 8.6L10.9874 4.84611ZM17.0446 0.560145C17.1864 0.595906 17.3402
                                0.636549 17.501 0.681105L17.0446 0.560145ZM21.6272 11.8879L21.7573
                                 11.5096C24.1083 12.3185 25.8316 13.9646 26.7808 16.3005C27.0087 16.8612
                                 27.1492 17.2634 27.2157 17.7362L21.6272 11.8879ZM21.6272 11.8879L21.7573
                                 11.5096C18.4618 10.3759 14.5839 11.672 12.5589 14.5705M21.6272 11.8879L12.5589
                                 14.5705M22.7708 26.3755L22.7708 26.3755C22.0667 26.7234 21.623 26.9321 21.1221
                                 27.042C20.6261 27.1509 20.0903 27.1593 19.2113 27.1593C18.3635 27.1593 17.8246
                                 27.1459 17.3427 27.0514C16.8519 26.9552 16.4378 26.7786 15.8334 26.4923L15.8333
                                  26.4923C13.0089 25.1544 11.3342 22.713 11.1666 19.664L22.7708 26.3755ZM22.7708
                                  26.3755C24.5675 25.4873 25.7214 24.3235 26.5824 22.5283C27.0346 21.5858 27.1681
                                   20.9321 27.2357 19.4953L22.7708 26.3755ZM12.5589 14.5705C11.4575 16.1468
                                   11.055 17.6341 11.1666 19.664L12.5589 14.5705ZM0.73665 23.8478C0.736493
                                    23.8481 0.735993 23.8453 0.735609 23.8388C0.736617 23.8444 0.736808
                                    23.8476 0.73665 23.8478Z" fill="#F41500" stroke="black" stroke-width="0.8"/>
</svg>
