<svg width="40" height="39" viewBox="0 0 40 39" fill="none" xmlns="http://www.w3.org/2000/svg">
<path d="M17.461 1.19187L17.461 1.19191C17.7122 1.56641 17.9183 1.92666 18.0615 2.19268C18.1332 2.32599
18.1895 2.43638 18.2282 2.51398C18.2475 2.55281 18.2624 2.58348 18.2727 2.60477L18.2845 2.62953L18.2877
 2.63637L18.2887 2.63835L18.2889 2.63897L18.289 2.63919L18.2891 2.63928L17.9267 2.80858L18.2891 2.63935L18.5989
 3.30287L17.8732 3.20499L17.8732 3.20499L17.8731 3.20498L17.8728 3.20493L17.8715 3.20476L17.8663 3.20405L17.8459
  3.20132L17.77 3.1912C17.7054 3.18262 17.615 3.1707 17.5122 3.15738C17.3059 3.13064 17.0517 3.09851 16.8541
  3.07614C16.7369 3.06287 16.6217 3.04976 16.5084 3.03686C14.4062 2.79763 12.9262 2.6292 11.0773 2.84703C10.5432
   2.90995 10.0422 2.98412 9.66668 3.0524C9.66576 3.05257 9.66483 3.05273 9.66391 3.0529C9.84944 3.19018 10.081
   3.34684 10.3414 3.50754L11.73 4.36428L12.5215 4.85263L11.6226 5.0913L9.93037 5.54063L9.93034 5.54064C9.51023
    5.65216 8.82118 5.93875 7.99989 6.3228C7.1874 6.70275 6.27195 7.16534 5.4106 7.61438C4.73215 7.96807 4.08897
     8.31246 3.55854 8.6H5H6H7.00344L6.27518 9.29031L6 9L6.27515 9.29033L6.27507 9.29041L6.27472 9.29074L6.2733
      9.29209L6.26763 9.29747L6.24536 9.3186L6.1601 9.3996C6.08632 9.46976 5.98019 9.57079 5.85092 9.69419C5.59234 9.94105 5.24133 10.2773 4.87143 10.6349C4.12497 11.3565 3.32132 12.1464 3.02972 12.4765C2.49433 13.0825 1.79239 13.9873 1.23788 14.7572C1.0595 15.0049 0.898224 15.236 0.763883 15.4367C0.956999 15.3916 1.16827 15.3411 1.37989 15.2898C1.73762 15.2031 2.09398 15.1147 2.36106 15.0479C2.49456 15.0145 2.60566 14.9866 2.68335 14.967L2.77345 14.9442L2.79711 14.9382L2.80314 14.9367L2.80465 14.9363L2.80503 14.9362L2.80512 14.9362L2.90355 15.3239M17.461 1.19187L17.5011 0.681119C18.7404 1.02458 20.2581 1.7176 21.4811 2.33511C22.0893 2.64216 22.6184 2.92737 22.9953 3.13574C23.1837 3.23989 23.3339 3.32474 23.4368 3.3834C23.4882 3.41273 23.5278 3.43551 23.5543 3.45087L23.5797 3.46555L24.5605 4.15715L25.2542 4.6463L25.1899 3.79991L24.791 3.83025L25.1899 3.79987L25.1899 3.79981L25.1899 3.79966L25.1898 3.79919L25.1897 3.79757L25.1892 3.79175L25.1875 3.77025C25.186 3.75175 25.1837 3.72515 25.1808 3.69206C25.1749 3.62596 25.1661 3.5336 25.1545 3.42806C25.1318 3.22037 25.097 2.94895 25.05 2.72601C25.008 2.52697 24.8552 1.87473 24.7084 1.25304C24.7181 1.26246 24.7279 1.2719 24.7376 1.28137C25.3677 1.89194 26.1205 2.62155 26.8815 3.39663C28.1175 4.65552 29.2724 5.93462 29.7671 6.80546L30.2274 7.61595L30.6979 8.44416L30.9598 7.5284L31.2619 6.47239C31.386 6.03906 31.5398 5.49197 31.6528 5.08336L32.0108 5.84477L32.0108 5.84481C32.8457 7.62055 33.6172 10.1252 33.8951 11.9573L34.0588 13.0374L34.1934 13.9252L34.7634 13.2313L36.2456 11.4269L36.2751 12.6355C36.3033 13.7893 36.2599 14.6173 36.2106 15.1525C36.1859 15.4201 36.1597 15.6145 36.1401 15.7398C36.1304 15.8024 36.1223 15.8478 36.1168 15.8765C36.1141 15.8908 36.1121 15.9009 36.1108 15.9069L36.1096 15.9127L36.1096 15.9129L36.1096 15.913L36.1095 15.9133L36.1095 15.9135L36.1086 15.9177L35.3571 19.4932L35.1894 20.2909L35.923 19.9355L38.2824 18.7922C38.0676 19.2133 37.7418 19.8215 37.2531 20.6944L37.2461 20.7071L37.2399 20.7202C36.3125 22.7001 35.5128 23.9376 34.3733 25.1754L33.589 26.0274L32.9383 26.7343L33.8984 26.698L35.6113 26.6333L35.5962 26.2336L35.6113 26.6333C35.9364 26.621 36.2388 26.616 36.4934 26.6174C36.3256 26.7819 36.1247 26.9712 35.9043 27.1726C35.2691 27.7528 34.4923 28.4148 33.919 28.845C33.3448 29.2759 32.1379 30.0249 31.2472 30.5003C31.2472 30.5004 31.2472 30.5004 31.2472 30.5004L29.6061 31.3762L28.8159 31.7979L29.6574 32.1049L31.9787 32.9514C31.473 33.1342 30.7695 33.2969 29.9632 33.4376C29.0419 33.5984 28.015 33.7258 27.0523 33.8243C26.0904 33.9228 25.1969 33.9918 24.5436 34.0363C24.2171 34.0585 23.9509 34.0746 23.7665 34.0851C23.6743 34.0903 23.6027 34.0942 23.5541 34.0967L23.4991 34.0996L23.4852 34.1002L23.4818 34.1004L23.481 34.1005L23.4808 34.1005L22.583 34.1436L23.216 34.7817L23.2161 34.7818L23.2164 34.7821L23.2178 34.7835L23.2237 34.7895L23.2471 34.8132C23.2677 34.8342 23.2981 34.8651 23.3367 34.9048C23.414 34.9841 23.5244 35.0983 23.6562 35.2369C23.9201 35.5143 24.2682 35.8882 24.6077 36.2762L24.6142 36.2836L24.6211 36.2907L25.1873 36.8765L24.2435 36.8207C23.7739 36.7929 23.1111 36.6439 22.3593 36.4228C21.6146 36.2037 20.8084 35.9217 20.0619 35.6417C19.3161 35.3621 18.6338 35.086 18.1379 34.8797C17.89 34.7766 17.6889 34.6911 17.5501 34.6314C17.4806 34.6016 17.4267 34.5782 17.3903 34.5624L17.3491 34.5444L17.3388 34.5399L17.3363 34.5388L17.3357 34.5385L17.3355 34.5384L16.6276 34.2265L16.7823 34.9845L17.1743 34.9045L16.7823 34.9845L16.7824 34.9846L16.7824 34.9848L16.7826 34.9857L16.7833 34.9892L16.7861 35.0028L16.7968 35.055L16.8364 35.2476C16.87 35.4106 16.9167 35.6365 16.9695 35.8888C17.0749 36.3923 17.2048 37.0035 17.3014 37.4259L17.3076 37.4533L17.3176 37.4795L17.456 37.8417L17.3543 37.7904L17.3543 37.7904C15.5128 36.8623 13.6575 35.5534 12.2593 34.1979L10.8452 32.8269L10.2989 32.2972L10.1723 33.0475L10.0609 33.7081L10.0609 33.7081C9.99782 34.0827 9.9269 34.8406 9.89784 35.4254L9.32625 34.6643L9.00641 34.9045L9.32624 34.6643C8.71124 33.8454 7.88514 32.2624 7.2013 30.8528C6.86246 30.1543 6.56336 29.5086 6.34893 29.0374C6.24175 28.8019 6.15581 28.6102 6.09673 28.4775C6.06719 28.4112 6.04437 28.3596 6.02897 28.3247L6.01153 28.2851L6.00716 28.2751L6.00608 28.2726L6.00583 28.2721L6.00577 28.2719L5.63929 28.4322M17.461 1.19187C17.3101 0.967008 17.1682 0.751388 17.0446 0.560145M17.461 1.19187L17.0446 0.560145M2.90355 15.3239L3.28363 15.4485L3.28362 15.4486L3.28358 15.4487L3.2834 15.4492L3.2827 15.4514L3.27993 15.4598L3.26921 15.4925L3.2294 15.6141L3.09454 16.0264C2.98705 16.3554 2.85388 16.7639 2.75081 17.083C2.49463 17.8761 2.22786 18.6196 1.97734 19.3178C1.83796 19.7063 1.7036 20.0808 1.5789 20.4419C1.23239 21.4455 0.951685 22.3697 0.80156 23.3004C0.992905 23.1462 1.23591 22.9413 1.54579 22.6792C1.83229 22.4367 2.12216 22.2178 2.33924 22.0602C2.44811 21.9812 2.53942 21.917 2.60382 21.8724C2.63603 21.8501 2.66155 21.8326 2.67922 21.8206L2.69969 21.8068L2.70524 21.803L2.7068 21.802L2.70727 21.8017L2.70742 21.8016L2.70748 21.8015L2.92972 22.1341L2.70753 21.8015L3.33932 21.3794L3.32969 22.1392L3.32969 22.1392L3.32969 22.1393L3.32968 22.1398L3.32966 22.1418L3.32956 22.1497L3.32921 22.1804L3.32803 22.295C3.32711 22.3926 3.32601 22.529 3.3253 22.6842C3.32388 22.9955 3.32406 23.3789 3.33023 23.6763C3.38369 26.2527 3.51523 28.3541 4.02312 30.1352C4.02312 30.1352 4.02312 30.1352 4.02312 30.1352L4.09328 30.3811L4.39295 29.7793C4.60855 29.3461 4.83698 28.954 5.01091 28.6709C5.09806 28.5291 5.172 28.4138 5.22443 28.3337C5.25066 28.2935 5.27154 28.2622 5.28604 28.2405L5.30288 28.2156L5.30748 28.2088L5.30878 28.2069L5.30918 28.2063L5.30931 28.2061L5.30936 28.206L5.63929 28.4322M2.90355 15.3239L2.80514 14.9362L3.51034 14.7572L3.28363 15.4485L2.90355 15.3239ZM5.63929 28.4322L5.3094 28.206L5.71697 27.6117L6.00576 28.2719L5.63929 28.4322ZM9.26597 2.72401C9.26863 2.72963 9.27148 2.7362 9.2743 2.74367C9.28662 2.77633 9.34457 2.96759 9.18141 3.12456L9.26597 2.72401ZM9.26597 2.72401C9.26773 2.72362 9.2695 2.72324 9.27127 2.72285L9.26597 2.72401ZM10.9874 4.84611L11.3099 5.04511L11.5199 4.7047L11.4173 4.31809L11.051 4.41535L10.1314 3.84796C9.72513 3.59728 9.37868 3.35106 9.15674 3.1627L10.9874 4.84611ZM10.9874 4.84611L9.82772 5.15403C8.38511 5.53696 4.37325 7.69457 2.7231 8.6L10.9874 4.84611ZM17.0446 0.560145C17.1864 0.595906 17.3402 0.636549 17.501 0.681105L17.0446 0.560145ZM21.6272 11.8879L21.7573 11.5096C24.1083 12.3185 25.8316 13.9646 26.7808 16.3005C27.0087 16.8612 27.1492 17.2634 27.2157 17.7362L21.6272 11.8879ZM21.6272 11.8879L21.7573 11.5096C18.4618 10.3759 14.5839 11.672 12.5589 14.5705M21.6272 11.8879L12.5589 14.5705M22.7708 26.3755L22.7708 26.3755C22.0667 26.7234 21.623 26.9321 21.1221 27.042C20.6261 27.1509 20.0903 27.1593 19.2113 27.1593C18.3635 27.1593 17.8246 27.1459 17.3427 27.0514C16.8519 26.9552 16.4378 26.7786 15.8334 26.4923L15.8333 26.4923C13.0089 25.1544 11.3342 22.713 11.1666 19.664L22.7708 26.3755ZM22.7708 26.3755C24.5675 25.4873 25.7214 24.3235 26.5824 22.5283C27.0346 21.5858 27.1681 20.9321 27.2357 19.4953L22.7708 26.3755ZM12.5589 14.5705C11.4575 16.1468 11.055 17.6341 11.1666 19.664L12.5589 14.5705ZM0.73665 23.8478C0.736493 23.8481 0.735993 23.8453 0.735609 23.8388C0.736617 23.8444 0.736808 23.8476 0.73665 23.8478Z" fill="#F41500" stroke="black" stroke-width="0.8"/>
</svg>
